<svg width="24" height="24" viewBox="0 0 24 24" fill="none" xmlns="http://www.w3.org/2000/svg">
<path d="M20.9998 10C20.9998 17 11.9998 23 11.9998 23C11.9998 23 2.99976 17 2.99976 10C2.99976 7.61305 3.94797 5.32387 5.63579 3.63604C7.32362 1.94821 9.61281 1 11.9998 1C14.3867 1 16.6759 1.94821 18.3637 3.63604C20.0515 5.32387 20.9998 7.61305 20.9998 10Z" stroke="#808080" stroke-width="1.5" stroke-linecap="round" stroke-linejoin="round"/>
<path d="M11.9995 13C12.7952 13 13.5582 12.6839 14.1208 12.1213C14.6834 11.5587 14.9995 10.7956 14.9995 10C14.9995 9.20435 14.6834 8.44129 14.1208 7.87868C13.5582 7.31607 12.7952 7 11.9995 7C11.2039 7 10.4408 7.31607 9.87819 7.87868C9.31558 8.44129 8.99951 9.20435 8.99951 10C8.99951 10.7956 9.31558 11.5587 9.87819 12.1213C10.4408 12.6839 11.2039 13 11.9995 13Z" fill="white" stroke="#808080" stroke-width="1.5" stroke-linecap="round" stroke-linejoin="round"/>
<path d="M2.99976 10L9.29976 10M14.6998 10L20.9998 10" stroke="#808080" stroke-width="1.5"/>
</svg>
